# xmcd
#
# Track frame offsets:
#	150
#	10624
#	23619
#	35124
#	49714
#	63385
#	74886
#	85534
#	95105
#	109926
#	120320
#	139373
#	153273
#	166438
#
# Disc length: 2382 seconds
#
# Revision: 0
# Processed by: cddbd v1.5.1PL0 Copyright (c) Steve Scherf et al.
# Submitted via: dBpowerAMP V4.0
#
DISCID=ba094c0e
DTITLE=Etta James - I´d Rather Go Blind
DYEAR=1900
DGENRE=Soul
TTITLE0=Tell Mama
TTITLE1=All I Could Do Was Cry
TTITLE2=I´d Rather Go Blind
TTITLE3=Sunday Kind of Love
TTITLE4=I Just Want to Make Love to You
TTITLE5=Anything to Say You´re Mine
TTITLE6=Tough Mary
TTITLE7=Waitin´ for Charlie (to Come Home)
TTITLE8=Only Time Will Tell
TTITLE9=Girl (Boy) of my Dreams
TTITLE10=Out on the Street Again
TTITLE11=Storm Wather
TTITLE12=Trust in Me
TTITLE13=Something´s Got a Hold on Me
EXTD=
EXTT0=
EXTT1=
EXTT2=
EXTT3=
EXTT4=
EXTT5=
EXTT6=
EXTT7=
EXTT8=
EXTT9=
EXTT10=
EXTT11=
EXTT12=
EXTT13=
PLAYORDER=
